<svg xmlns="http://www.w3.org/2000/svg" xmlns:xlink="http://www.w3.org/1999/xlink" version="1.1" x="0px" y="0px" viewBox="0 0 512 640" style="enable-background:new 0 0 512 512;" xml:space="preserve"><title>EconomicPolicy-economical-economic-economy-policy</title><path d="M229.4,416c13.2-27.9,46.6-39.8,74.5-26.6c0,0,0,0,0.1,0V344c0-11.5,8.2-21.5,19.6-23.6c5.6-28.4,17.5-55.1,34.8-78.3  l9.1-12.2l-4.3-26c-2.2-13.1,6.7-25.4,19.7-27.6c1.3-0.2,2.6-0.3,3.9-0.3h42.2c1,0,1.9,0.1,2.9,0.2V40c0-4.4-3.6-8-8-8H88  c-4.4,0-8,3.6-8,8v416c0,13.3,10.7,24,24,24s24-10.7,24-24v-16c0-13.2,10.8-24,24-24H229.4z M256,360h-16v16h-16v-16h-16v-16h16v-16  h16v16h16V360z M320,288h-16v-20.7l-48,48l-24-24l-50.3,50.3l-11.3-11.3l61.7-61.7l24,24l36.7-36.7H272v-16h48V288z M344,208h-16v16  h-16v-16h-16v-16h16v-16h16v16h16V208z M184,56h144v16H184V56z M112,96h288v16H112V96z M112,144h288v16H112V144z M112,192h168v16  H112V192z M112,240h136v16H112V240z M112,288h64v16h-64V288z M112,336h32v16h-32V336z M112,400v-16h88v16H112z"/><path d="M224.6,432H152c-4.4,0-8,3.6-8,8v16c0,8.7-2.8,17.1-8,24h104.9C228.1,467.5,222,449.7,224.6,432z"/><path d="M444.8,251.7L436,240h-10l13.8,62.3l-15.6,3.5L409.6,240h-3.2l-14.6,65.7l-15.6-3.5L390,240h-10l-8.8,11.7  C356,272,345.4,295.3,340,320h52c13.2,0,24,10.8,24,24v128c0,2.7-0.5,5.4-1.4,8H456c13.2,0,24-10.8,24-24v-98.7  C479.9,319.3,467.6,282.2,444.8,251.7z"/><path d="M386.9,192c-4.4,0-8,3.6-8,8c0,0.4,0,0.9,0.1,1.3l3.8,22.7h50.4l3.8-22.7c0.7-4.4-2.2-8.5-6.6-9.2c-0.4-0.1-0.9-0.1-1.3-0.1  H386.9z"/><circle cx="280" cy="440" r="40"/><path d="M392,336h-64c-4.4,0-8,3.6-8,8v16h80v-16C400,339.6,396.4,336,392,336z"/><path d="M319.1,480H392c4.4,0,8-3.6,8-8v-16h-66.3C330.9,465.1,325.9,473.4,319.1,480z"/><rect x="320" y="376" width="80" height="24"/><path d="M336,440h64v-24h-69.4C334.2,423.5,336,431.7,336,440z"/><text x="0" y="527" fill="#000000" font-size="5px" font-weight="bold" font-family="'Helvetica Neue', Helvetica, Arial-Unicode, Arial, Sans-serif">Created by WiStudio</text><text x="0" y="532" fill="#000000" font-size="5px" font-weight="bold" font-family="'Helvetica Neue', Helvetica, Arial-Unicode, Arial, Sans-serif">from the Noun Project</text></svg>